<?xml version="1.0" encoding="utf-8"?>
<!-- Generator: Adobe Illustrator 26.1.0, SVG Export Plug-In . SVG Version: 6.00 Build 0)  -->
<svg version="1.1" id="Calque_1" xmlns="http://www.w3.org/2000/svg" xmlns:xlink="http://www.w3.org/1999/xlink" x="0px" y="0px"
	 viewBox="0 0 500 150" style="enable-background:new 0 0 500 150;" xml:space="preserve">
<style type="text/css">
	.st0{fill:none;stroke:url(#SVGID_1_);stroke-width:7;stroke-miterlimit:10;}
	
		.st1{clip-path:url(#SVGID_00000053532882488468529900000011942289229002244006_);fill:none;stroke:url(#SVGID_00000062888110289194317880000015212229223530686368_);stroke-width:7;stroke-miterlimit:10;}
	
		.st2{clip-path:url(#SVGID_00000053532882488468529900000011942289229002244006_);fill:none;stroke:url(#SVGID_00000169537450513377900640000006492162507622990478_);stroke-width:7;stroke-miterlimit:10;}
	
		.st3{clip-path:url(#SVGID_00000126291919492905041350000004217926575721638547_);fill:none;stroke:url(#SVGID_00000010308048748709004480000015887143646274553526_);stroke-width:7;stroke-miterlimit:10;}
	
		.st4{clip-path:url(#SVGID_00000030448541536738292820000012778398062412129471_);fill:none;stroke:url(#SVGID_00000097495365881015092540000007251578306315661479_);stroke-width:7;stroke-miterlimit:10;}
	.st5{fill:url(#SVGID_00000009588994981524459690000005338802617606966701_);}
	.st6{fill:url(#SVGID_00000173153009130014661260000016801876687682526886_);}
	
		.st7{clip-path:url(#SVGID_00000147194962171660359210000002025251040768675227_);fill:url(#SVGID_00000101105114464262938930000004455916708385606312_);}
	.st8{fill:url(#SVGID_00000111172152268739746580000016039548489453643191_);}
	.st9{fill:url(#SVGID_00000075881402591850048620000006796887899290558910_);}
	.st10{fill:url(#SVGID_00000002342497072221534820000004876531541812462265_);}
	.st11{fill:url(#SVGID_00000074419025957191902010000003194558002590503836_);}
	.st12{fill:url(#SVGID_00000170990713020390627240000013670829877397653929_);}
	.st13{fill:url(#SVGID_00000116205275927957284740000007084485240722926493_);}
	.st14{fill:url(#SVGID_00000010306511591472973580000004960582996388863158_);}
	.st15{fill:url(#SVGID_00000168108174565527099130000003977181611796943774_);}
	.st16{fill:url(#SVGID_00000132062287922995346700000016593571148032922279_);}
	.st17{fill:url(#SVGID_00000090296259090976492740000014808218244054639770_);}
	.st18{fill:url(#SVGID_00000146469349024133290950000017117461634651225008_);}
</style>
<g>
	<g>
		<linearGradient id="SVGID_1_" gradientUnits="userSpaceOnUse" x1="80.9219" y1="81.477" x2="31.7733" y2="81.477">
			<stop  offset="0" style="stop-color:#FFE6A2"/>
			<stop  offset="3.202742e-02" style="stop-color:#FEE39B"/>
			<stop  offset="0.2233" style="stop-color:#F8D678"/>
			<stop  offset="0.4165" style="stop-color:#F3CC5C"/>
			<stop  offset="0.6101" style="stop-color:#F0C448"/>
			<stop  offset="0.8042" style="stop-color:#EEBF3C"/>
			<stop  offset="1" style="stop-color:#EDBE38"/>
		</linearGradient>
		<path class="st0" d="M76.3,89.6c-7.3,2.4-14.1,6.2-20,10.9c-5.9-4.7-12.6-8.4-20-10.9c4.2-10.7,11.1-20.1,20-27.1
			C65.2,69.5,72.1,78.9,76.3,89.6z"/>
		<g>
			<defs>
				<polygon id="SVGID_00000044884248684819032790000001801913453280167049_" points="70.6,139.2 40.9,139.2 41.5,119.8 71.2,119.8 
									"/>
			</defs>
			<clipPath id="SVGID_00000174594569238340123550000006799021977046577831_">
				<use xlink:href="#SVGID_00000044884248684819032790000001801913453280167049_"  style="overflow:visible;"/>
			</clipPath>
			
				<linearGradient id="SVGID_00000165926666381511365860000000858146277386429333_" gradientUnits="userSpaceOnUse" x1="-42.0411" y1="139.7749" x2="59.9891" y2="139.7749">
				<stop  offset="0" style="stop-color:#FFE6A2"/>
				<stop  offset="1" style="stop-color:#EDBE38"/>
			</linearGradient>
			
				<path style="clip-path:url(#SVGID_00000174594569238340123550000006799021977046577831_);fill:none;stroke:url(#SVGID_00000165926666381511365860000000858146277386429333_);stroke-width:7;stroke-miterlimit:10;" d="
				M56.5,139.7c0-3.4-22.8,25.7-47.5,25.7c-26.2,0-47.5-11.5-47.5-25.7C-36.4,105.6,54.4,105.6,56.5,139.7z"/>
			
				<linearGradient id="SVGID_00000016039837198114751880000013479732802182251455_" gradientUnits="userSpaceOnUse" x1="155.0192" y1="139.7748" x2="52.9891" y2="139.7748">
				<stop  offset="0" style="stop-color:#FFE6A2"/>
				<stop  offset="1" style="stop-color:#EDBE38"/>
			</linearGradient>
			
				<path style="clip-path:url(#SVGID_00000174594569238340123550000006799021977046577831_);fill:none;stroke:url(#SVGID_00000016039837198114751880000013479732802182251455_);stroke-width:7;stroke-miterlimit:10;" d="
				M151.5,139.7c0,14.2-21.3,25.7-47.5,25.7c-27.8,0-47.5-29.1-47.5-25.7C58.6,105.6,149.4,105.6,151.5,139.7z"/>
		</g>
		<g>
			<defs>
				<path id="SVGID_00000064316644084058711190000008110623421740936106_" d="M69.9,95.9c-14.8,0-49.5,0-64.6,0l0,47.5l39.9,0v-16.9
					h24.7l0,16.9h39.9V95.9H69.9z"/>
			</defs>
			<clipPath id="SVGID_00000092434698664344793460000005625789505726890917_">
				<use xlink:href="#SVGID_00000064316644084058711190000008110623421740936106_"  style="overflow:visible;"/>
			</clipPath>
			
				<linearGradient id="SVGID_00000132795529903150528800000013444456342876950428_" gradientUnits="userSpaceOnUse" x1="109.2764" y1="120.0611" x2="5.4755" y2="120.0611">
				<stop  offset="0" style="stop-color:#FFE6A2"/>
				<stop  offset="1" style="stop-color:#EDBE38"/>
			</linearGradient>
			
				<path style="clip-path:url(#SVGID_00000092434698664344793460000005625789505726890917_);fill:none;stroke:url(#SVGID_00000132795529903150528800000013444456342876950428_);stroke-width:7;stroke-miterlimit:10;" d="
				M98.5,106c-14.6-3.7-31.2,0.7-42.1,10.4c-11.9-10.7-30.7-14.8-46.3-9.2c6.1,13.8,18.3,24.2,33,27.7c-0.2,0.5,26.9,0.5,26.7,0
				c14.7-2.1,29-13.5,34.8-27.1C102.7,107.2,100.6,106.5,98.5,106z"/>
		</g>
		<g>
			<defs>
				<rect id="SVGID_00000113341741922470414950000009022950170835535246_" x="-6" y="43.8" width="118.8" height="54.1"/>
			</defs>
			<clipPath id="SVGID_00000054241292480172623250000011928168106314457477_">
				<use xlink:href="#SVGID_00000113341741922470414950000009022950170835535246_"  style="overflow:visible;"/>
			</clipPath>
			
				<linearGradient id="SVGID_00000112629562177576728310000011299696792816965305_" gradientUnits="userSpaceOnUse" x1="108.3299" y1="97.8492" x2="5.6738" y2="97.8492">
				<stop  offset="0" style="stop-color:#FFE6A2"/>
				<stop  offset="0.2014" style="stop-color:#F9D87E"/>
				<stop  offset="0.4123" style="stop-color:#F4CD5F"/>
				<stop  offset="0.6192" style="stop-color:#F0C54A"/>
				<stop  offset="0.818" style="stop-color:#EEC03C"/>
				<stop  offset="1" style="stop-color:#EDBE38"/>
			</linearGradient>
			
				<path style="clip-path:url(#SVGID_00000054241292480172623250000011928168106314457477_);fill:none;stroke:url(#SVGID_00000112629562177576728310000011299696792816965305_);stroke-width:7;stroke-miterlimit:10;" d="
				M9.2,97.8c0-27.5,21.5-49.7,48-49.7c63.6,2.6,63.6,96.9,0,99.5C30.6,147.6,9.2,125.3,9.2,97.8z"/>
		</g>
		<g>
			
				<linearGradient id="SVGID_00000029022205104856927590000013659744107089542073_" gradientUnits="userSpaceOnUse" x1="75.6432" y1="30.5513" x2="39.5903" y2="30.5513">
				<stop  offset="0" style="stop-color:#FFE6A2"/>
				<stop  offset="9.011561e-02" style="stop-color:#FDE193"/>
				<stop  offset="0.3659" style="stop-color:#F6D26C"/>
				<stop  offset="0.6187" style="stop-color:#F1C74F"/>
				<stop  offset="0.8383" style="stop-color:#EEC03E"/>
				<stop  offset="1" style="stop-color:#EDBE38"/>
			</linearGradient>
			<path style="fill:url(#SVGID_00000029022205104856927590000013659744107089542073_);" d="M67.1,36.3c-6.6,0-13.1,0-19.7,0
				c-2.6-3.9-5.2-7.7-7.8-11.6h36.1C72.8,28.6,69.9,32.5,67.1,36.3z"/>
			
				<linearGradient id="SVGID_00000088118304198356243350000015893329901593623221_" gradientUnits="userSpaceOnUse" x1="65.1732" y1="39.5391" x2="50.0603" y2="39.5391">
				<stop  offset="0" style="stop-color:#FFE6A2"/>
				<stop  offset="1" style="stop-color:#EDBE38"/>
			</linearGradient>
			<path style="fill:url(#SVGID_00000088118304198356243350000015893329901593623221_);" d="M61.6,37.1c-2.7,0-5.5,0-8.2,0
				c-1.1,1.6-2.2,3.2-3.3,4.8h15.1C64,40.3,62.8,38.7,61.6,37.1z"/>
			<g>
				<defs>
					<rect id="SVGID_00000118390651516737977590000012806590773167976383_" x="44.1" y="6.6" width="26" height="17.4"/>
				</defs>
				<clipPath id="SVGID_00000120552198428824428380000011244313733041824167_">
					<use xlink:href="#SVGID_00000118390651516737977590000012806590773167976383_"  style="overflow:visible;"/>
				</clipPath>
				
					<linearGradient id="SVGID_00000078761514812859443250000012342338830621266605_" gradientUnits="userSpaceOnUse" x1="66.178" y1="24.0203" x2="48.6837" y2="24.0203">
					<stop  offset="0" style="stop-color:#FFE6A2"/>
					<stop  offset="1" style="stop-color:#EDBE38"/>
				</linearGradient>
				
					<path style="clip-path:url(#SVGID_00000120552198428824428380000011244313733041824167_);fill:url(#SVGID_00000078761514812859443250000012342338830621266605_);" d="
					M66.2,24c0-3.2-3.9-5.9-8.8-5.9c-11.6,0.3-11.6,11.4,0,11.7C62.2,29.9,66.2,27.3,66.2,24z"/>
			</g>
		</g>
	</g>
	<g>
		
			<linearGradient id="SVGID_00000173839014928946779950000008752857476030115731_" gradientUnits="userSpaceOnUse" x1="148.7255" y1="167.5824" x2="146.2066" y2="17.2864">
			<stop  offset="0" style="stop-color:#FFE6A2"/>
			<stop  offset="0.1925" style="stop-color:#F9D980"/>
			<stop  offset="0.4097" style="stop-color:#F4CD61"/>
			<stop  offset="0.621" style="stop-color:#F0C54A"/>
			<stop  offset="0.8215" style="stop-color:#EEC03D"/>
			<stop  offset="1" style="stop-color:#EDBE38"/>
		</linearGradient>
		<path style="fill:url(#SVGID_00000173839014928946779950000008752857476030115731_);" d="M121.4,55.7h34.2c13.6,0,18,8.4,18,17.3
			c0,8.5-5.4,17.2-17.9,17.2H133v21.2h-11.6V55.7z M133,81.4h18.7c6.6,0,10.2-1.8,10.2-8.4c0-6.9-4.8-8.6-9.3-8.6H133V81.4z"/>
		
			<linearGradient id="SVGID_00000093899468572939482580000007347570113299964089_" gradientUnits="userSpaceOnUse" x1="205.0825" y1="166.6261" x2="202.5637" y2="16.3366">
			<stop  offset="0" style="stop-color:#FFE6A2"/>
			<stop  offset="0.2018" style="stop-color:#F9D87E"/>
			<stop  offset="0.4124" style="stop-color:#F4CD5F"/>
			<stop  offset="0.6191" style="stop-color:#F0C54A"/>
			<stop  offset="0.8179" style="stop-color:#EEC03C"/>
			<stop  offset="1" style="stop-color:#EDBE38"/>
		</linearGradient>
		<path style="fill:url(#SVGID_00000093899468572939482580000007347570113299964089_);" d="M197.2,55.7h13.8l24.7,55.7h-13L217,97.6
			h-26.1l-5.7,13.8h-12.6L197.2,55.7z M213.5,88.8L204,65.3l-9.6,23.5H213.5z"/>
		
			<linearGradient id="SVGID_00000008829926766758301170000008047742315017016199_" gradientUnits="userSpaceOnUse" x1="269.1778" y1="165.5449" x2="266.659" y2="15.2595">
			<stop  offset="0" style="stop-color:#FFE6A2"/>
			<stop  offset="0.2042" style="stop-color:#F9D87D"/>
			<stop  offset="0.4131" style="stop-color:#F4CD5F"/>
			<stop  offset="0.6185" style="stop-color:#F0C549"/>
			<stop  offset="0.8168" style="stop-color:#EEC03C"/>
			<stop  offset="1" style="stop-color:#EDBE38"/>
		</linearGradient>
		<path style="fill:url(#SVGID_00000008829926766758301170000008047742315017016199_);" d="M240.7,55.7h35.1
			c14.1,0,18.7,6.5,18.7,15.1c0,7.3-4,11.8-9.2,13.4v0.2c6.6,1.4,8.1,7.2,8.1,15.1c0,2.7,0.1,8.9,2.3,11.9h-12.6
			c-0.9-1.6-1.4-4.4-1.4-8.4c0-8-1.1-13.6-9.6-13.6h-19.8v22h-11.6V55.7z M272.5,80.6c6.4,0,9.9-2,9.9-8.2c0-5.8-3.8-8-9.9-8h-20.1
			v16.2H272.5z"/>
		
			<linearGradient id="SVGID_00000041981492000905742140000009665463822364661949_" gradientUnits="userSpaceOnUse" x1="328.4604" y1="164.5533" x2="325.9415" y2="14.2573">
			<stop  offset="0" style="stop-color:#FFE6A2"/>
			<stop  offset="1.943177e-02" style="stop-color:#FEE49E"/>
			<stop  offset="0.2174" style="stop-color:#F8D779"/>
			<stop  offset="0.416" style="stop-color:#F3CC5D"/>
			<stop  offset="0.6133" style="stop-color:#F0C448"/>
			<stop  offset="0.8087" style="stop-color:#EEC03C"/>
			<stop  offset="1" style="stop-color:#EDBE38"/>
		</linearGradient>
		<path style="fill:url(#SVGID_00000041981492000905742140000009665463822364661949_);" d="M304,55.7h46.1v8.7h-34.5v14.1h32.6v8.7
			h-32.6v24.2H304V55.7z"/>
		
			<linearGradient id="SVGID_00000003067210909897015440000002809235394650882947_" gradientUnits="userSpaceOnUse" x1="385.4468" y1="163.5906" x2="382.9279" y2="13.2984">
			<stop  offset="0" style="stop-color:#FFE6A2"/>
			<stop  offset="2.173632e-02" style="stop-color:#FEE49D"/>
			<stop  offset="0.2185" style="stop-color:#F8D779"/>
			<stop  offset="0.4162" style="stop-color:#F3CC5D"/>
			<stop  offset="0.6128" style="stop-color:#F0C448"/>
			<stop  offset="0.808" style="stop-color:#EEC03C"/>
			<stop  offset="1" style="stop-color:#EDBE38"/>
		</linearGradient>
		<path style="fill:url(#SVGID_00000003067210909897015440000002809235394650882947_);" d="M356.8,55.7h11.6v31.5
			c0,7.7,0.3,17.1,15.5,17.1c15.2,0,15.5-9.4,15.5-17.1V55.7h11.6v31.8c0,9.2-0.3,25.5-27.2,25.5c-26.8,0-27.1-16.3-27.1-25.5V55.7z
			"/>
		
			<linearGradient id="SVGID_00000069394401968571516840000002550594877503746177_" gradientUnits="userSpaceOnUse" x1="459.2891" y1="162.3394" x2="456.7704" y2="12.058">
			<stop  offset="0" style="stop-color:#FFE6A2"/>
			<stop  offset="4.742700e-02" style="stop-color:#FDE298"/>
			<stop  offset="0.2303" style="stop-color:#F7D575"/>
			<stop  offset="0.4164" style="stop-color:#F3CB5A"/>
			<stop  offset="0.605" style="stop-color:#F0C447"/>
			<stop  offset="0.7976" style="stop-color:#EEBF3C"/>
			<stop  offset="1" style="stop-color:#EDBE38"/>
		</linearGradient>
		<path style="fill:url(#SVGID_00000069394401968571516840000002550594877503746177_);" d="M421.9,55.7h16.8l19.4,43.3l19.3-43.3
			H494v55.7h-11l0.5-46.1h-0.2l-20.5,46.1h-9.9l-20.3-46.1h-0.2l0.5,46.1h-10.9V55.7z"/>
	</g>
	<g>
		
			<linearGradient id="SVGID_00000169520410713067457670000015375577932552722847_" gradientUnits="userSpaceOnUse" x1="127.8619" y1="110.5844" x2="127.8619" y2="143.6022">
			<stop  offset="0" style="stop-color:#FFE6A2"/>
			<stop  offset="0.1164" style="stop-color:#FADA82"/>
			<stop  offset="0.2419" style="stop-color:#F5D067"/>
			<stop  offset="0.3794" style="stop-color:#F1C852"/>
			<stop  offset="0.5328" style="stop-color:#EFC243"/>
			<stop  offset="0.7151" style="stop-color:#EDBF3B"/>
			<stop  offset="1" style="stop-color:#EDBE38"/>
		</linearGradient>
		<path style="fill:url(#SVGID_00000169520410713067457670000015375577932552722847_);" d="M127.2,115.8c3.4,0,10.1,0.6,10.7,7h-4.9
			c-0.2-1.7-1.7-3.5-5.5-3.5c-3.1,0-5.1,1-5.1,3c0,5.2,16.2,0.2,16.2,9.6c0,5.6-5.8,7.1-10.5,7.1c-7.8,0-11-3.1-11.1-7.7h4.9
			c0.1,2.9,2.5,4.3,6.3,4.3c2.8,0,5.4-0.8,5.4-3.2c0-5.4-16.1-0.7-16.1-9.7C117.6,117.7,121.9,115.8,127.2,115.8z"/>
		
			<linearGradient id="SVGID_00000085245379570227889940000003709980972036737963_" gradientUnits="userSpaceOnUse" x1="149.6526" y1="110.5844" x2="149.6526" y2="143.6022">
			<stop  offset="0" style="stop-color:#FFE6A2"/>
			<stop  offset="2.861786e-02" style="stop-color:#FDE297"/>
			<stop  offset="0.1202" style="stop-color:#F8D77A"/>
			<stop  offset="0.2223" style="stop-color:#F4CE62"/>
			<stop  offset="0.3371" style="stop-color:#F1C74F"/>
			<stop  offset="0.4722" style="stop-color:#EFC242"/>
			<stop  offset="0.6464" style="stop-color:#EDBF3A"/>
			<stop  offset="1" style="stop-color:#EDBE38"/>
		</linearGradient>
		<path style="fill:url(#SVGID_00000085245379570227889940000003709980972036737963_);" d="M147.4,119.8h-8.2v-3.4h20.9v3.4h-8.2
			v18.5h-4.6V119.8z"/>
		
			<linearGradient id="SVGID_00000102508555439025037330000006521159315320406920_" gradientUnits="userSpaceOnUse" x1="173.9625" y1="110.5844" x2="173.9625" y2="143.6022">
			<stop  offset="0" style="stop-color:#FFE6A2"/>
			<stop  offset="8.485198e-03" style="stop-color:#FFE59F"/>
			<stop  offset="0.1191" style="stop-color:#F9D97F"/>
			<stop  offset="0.2384" style="stop-color:#F5CF65"/>
			<stop  offset="0.3701" style="stop-color:#F1C851"/>
			<stop  offset="0.519" style="stop-color:#EFC243"/>
			<stop  offset="0.6997" style="stop-color:#EDBF3B"/>
			<stop  offset="1" style="stop-color:#EDBE38"/>
		</linearGradient>
		<path style="fill:url(#SVGID_00000102508555439025037330000006521159315320406920_);" d="M161.1,127.3c0-6.2,3.6-11.6,12.8-11.6
			c9.2,0,12.8,5.4,12.8,11.6c0,6.2-3.6,11.6-12.8,11.6C164.7,138.9,161.1,133.5,161.1,127.3z M182,127.3c0-4.8-2.9-8.1-8.1-8.1
			c-5.1,0-8.1,3.3-8.1,8.1c0,4.8,2.9,8.1,8.1,8.1C179.1,135.5,182,132.2,182,127.3z"/>
		
			<linearGradient id="SVGID_00000173142986087876352580000000814748552122354076_" gradientUnits="userSpaceOnUse" x1="200.8532" y1="110.5844" x2="200.8532" y2="143.6022">
			<stop  offset="0" style="stop-color:#FFE6A2"/>
			<stop  offset="2.275378e-02" style="stop-color:#FEE39A"/>
			<stop  offset="0.1205" style="stop-color:#F8D87C"/>
			<stop  offset="0.2284" style="stop-color:#F4CE63"/>
			<stop  offset="0.3489" style="stop-color:#F1C750"/>
			<stop  offset="0.4887" style="stop-color:#EFC242"/>
			<stop  offset="0.6654" style="stop-color:#EDBF3A"/>
			<stop  offset="1" style="stop-color:#EDBE38"/>
		</linearGradient>
		<path style="fill:url(#SVGID_00000173142986087876352580000000814748552122354076_);" d="M190,116.4h13.8c5.6,0,7.4,2.5,7.4,6
			c0,2.9-1.6,4.6-3.6,5.3v0.1c2.6,0.6,3.2,2.8,3.2,5.9c0,1,0,3.5,0.9,4.7h-4.9c-0.3-0.6-0.5-1.7-0.5-3.3c0-3.1-0.4-5.3-3.8-5.3h-7.8
			v8.7H190V116.4z M202.5,126.2c2.5,0,3.9-0.8,3.9-3.2c0-2.3-1.5-3.2-3.9-3.2h-7.9v6.4H202.5z"/>
		
			<linearGradient id="SVGID_00000146488441586332982610000012892154164537427866_" gradientUnits="userSpaceOnUse" x1="224.5067" y1="110.5844" x2="224.5067" y2="143.6022">
			<stop  offset="0" style="stop-color:#FFE6A2"/>
			<stop  offset="8.485198e-03" style="stop-color:#FFE59F"/>
			<stop  offset="0.1191" style="stop-color:#F9D97F"/>
			<stop  offset="0.2384" style="stop-color:#F5CF65"/>
			<stop  offset="0.3701" style="stop-color:#F1C851"/>
			<stop  offset="0.519" style="stop-color:#EFC243"/>
			<stop  offset="0.6997" style="stop-color:#EDBF3B"/>
			<stop  offset="1" style="stop-color:#EDBE38"/>
		</linearGradient>
		<path style="fill:url(#SVGID_00000146488441586332982610000012892154164537427866_);" d="M214.9,116.4h18.9v3.4h-14.4v5.5h13.8
			v3.4h-13.8v6.1h14.6v3.4h-19.2V116.4z"/>
	</g>
</g>
</svg>
